<svg xmlns="http://www.w3.org/2000/svg" viewBox="0 0 160 160" role="img" aria-label="right facepalm hand"><g transform="translate(160 0) scale(-1 1)"><g fill="none" stroke="#111318" stroke-width="17" stroke-linecap="round" stroke-linejoin="round"><path d="M56 67 Q52.5 13 49 18"/><path d="M71 61 Q69.5 5 68 10"/><path d="M86 62 Q87 10 88 15"/><path d="M100 69 Q104.5 23 109 28"/></g><g fill="none" stroke="#ffdbab" stroke-width="9" stroke-linecap="round" stroke-linejoin="round"><path d="M56 67 Q52.5 13 49 18"/><path d="M71 61 Q69.5 5 68 10"/><path d="M86 62 Q87 10 88 15"/><path d="M100 69 Q104.5 23 109 28"/></g><path d="M18 77 Q31 68 49 70 C54 57 72 51 89 58 C106 65 113 83 107 101 C101 119 84 129 65 124 L45 117 Q31 111 18 101 Z" fill="#ffdbab" stroke="#111318" stroke-width="5" stroke-linejoin="round"/><path d="M20 92 Q38 88 49 96" fill="none" stroke="#e9c89c" stroke-width="5" stroke-linecap="round"/><path d="M64 116 Q84 117 99 103" fill="none" stroke="#e9c89c" stroke-width="4" stroke-linecap="round"/></g></svg>
